<?xml version="1.0" standalone="no"?>
<!DOCTYPE svg PUBLIC "-//W3C//DTD SVG 20010904//EN"
 "http://www.w3.org/TR/2001/REC-SVG-20010904/DTD/svg10.dtd">
<svg version="1.0" xmlns="http://www.w3.org/2000/svg"
 width="200.000000pt" height="200.000000pt" viewBox="0 0 200.000000 200.000000"
 preserveAspectRatio="xMidYMid meet">
<metadata>
Created by potrace 1.15, written by Peter Selinger 2001-2017
</metadata>
<g transform="translate(0.000000,200.000000) scale(0.100000,-0.100000)"
fill="#000000" stroke="none">
<path d="M813 1459 c-144 -93 -173 -116 -173 -135 0 -43 41 -28 195 72 82 53
153 98 159 100 6 2 85 -44 175 -102 127 -82 168 -104 180 -97 40 25 23 42
-154 158 -97 63 -184 115 -193 115 -9 0 -95 -50 -189 -111z"/>
<path d="M510 956 c0 -14 -7 -31 -15 -40 -17 -17 -20 -46 -5 -46 6 0 10 -41
10 -103 0 -92 2 -106 20 -122 16 -15 26 -17 48 -9 34 12 45 56 13 47 -20 -5
-21 -1 -21 91 0 89 1 96 20 96 13 0 20 7 20 20 0 13 -7 20 -20 20 -16 0 -20 7
-20 35 0 31 -3 35 -25 35 -20 0 -25 -5 -25 -24z"/>
<path d="M918 969 c-32 -12 -49 -59 -37 -102 5 -16 24 -48 43 -72 47 -57 63
-92 48 -107 -18 -18 -42 -1 -42 32 0 25 -4 30 -25 30 -31 0 -42 -37 -23 -76
29 -62 138 -51 153 15 9 42 0 67 -49 131 -58 75 -59 79 -46 96 17 19 40 0 40
-32 0 -19 5 -24 25 -24 23 0 25 4 25 44 0 24 -6 48 -13 55 -21 17 -69 21 -99
10z"/>
<path d="M100 805 l0 -165 59 0 c52 0 62 3 80 26 18 23 21 41 21 139 0 98 -3
116 -21 139 -18 23 -28 26 -80 26 l-59 0 0 -165z"/>
<path d="M300 786 c0 -140 9 -164 59 -151 14 3 41 6 59 5 l32 -1 0 136 0 135
-30 0 -30 0 0 -109 c0 -70 -4 -112 -11 -117 -21 -13 -29 21 -29 124 l0 102
-25 0 -25 0 0 -124z"/>
<path d="M626 888 c-9 -12 -16 -33 -16 -45 0 -31 41 -32 55 -2 15 32 30 28 33
-8 3 -25 -1 -33 -13 -33 -9 0 -30 -13 -46 -29 -39 -39 -41 -102 -4 -127 16
-10 32 -13 47 -8 13 4 35 6 51 5 l27 -3 0 114 c0 139 -9 158 -75 158 -34 0
-47 -5 -59 -22z"/>
<path d="M1076 894 c-9 -8 -16 -29 -16 -45 0 -24 4 -29 25 -29 18 0 25 5 25
19 0 25 20 38 31 20 17 -27 8 -48 -30 -70 -61 -34 -80 -100 -40 -140 15 -15
28 -19 47 -14 15 3 39 6 55 5 l27 0 0 123 c0 82 -4 127 -12 135 -18 18 -94 15
-112 -4z"/>
<path d="M1240 775 l0 -135 30 0 30 0 0 109 c0 63 4 112 10 116 6 4 10 -5 10
-19 0 -21 5 -26 26 -26 23 0 25 3 22 43 l-3 42 -62 2 -63 2 0 -134z"/>
<path d="M1408 899 c-12 -6 -18 -22 -18 -44 0 -30 3 -35 24 -35 18 0 26 6 28
22 5 37 28 34 28 -5 0 -29 -5 -37 -30 -47 -40 -16 -60 -46 -60 -87 0 -46 32
-77 72 -69 17 3 41 6 54 6 24 0 24 0 24 119 0 95 -3 123 -16 135 -17 18 -80
21 -106 5z"/>
<path d="M1570 775 l0 -135 30 0 30 0 0 109 c0 84 3 110 14 114 8 3 17 3 20 0
3 -4 6 -55 6 -115 l0 -108 30 0 30 0 0 109 c0 137 -8 161 -53 161 -18 0 -38
-5 -45 -12 -9 -9 -12 -9 -12 0 0 7 -11 12 -25 12 l-25 0 0 -135z"/>
<path d="M1777 892 c-10 -10 -17 -31 -17 -45 0 -22 5 -27 24 -27 18 0 25 6 28
23 4 31 32 28 36 -5 3 -21 -3 -30 -25 -41 -47 -25 -68 -55 -68 -99 0 -48 26
-73 65 -63 14 3 37 6 53 5 l27 0 0 123 c0 82 -4 127 -12 135 -19 19 -92 15
-111 -6z"/>
</g>
</svg>
